<svg xmlns="http://www.w3.org/2000/svg" xmlns:xlink="http://www.w3.org/1999/xlink" height="514pt" version="1.1" viewBox="0 0 748 514" width="748pt">
 <defs>
  <clipPath id="pd831f6c710">
   <rect height="398.97" width="580.32" x="93.6" y="51.48"/>
  </clipPath>
 </defs>
<defs>
  <style type="text/css">
*{stroke-linecap:butt;stroke-linejoin:round;}
  </style>
 </defs>
 <g id="figure_1">
  <g id="patch_1">
   <path d=" M0 514.8 L748.8 514.8 L748.8 0 L0 0 z " style="fill:#ffffff;"/>
  </g>
  <g id="axes_1">
   <g id="patch_2">
    <path d=" M93.6 450.45 L673.92 450.45 L673.92 51.48 L93.6 51.48 z " style="fill:#eaeaf2;"/>
   </g>
   <g id="matplotlib.axis_1">
    <g id="xtick_1">
     <g id="line2d_1">
      <path clip-path="url(#pd831f6c710)" d=" M93.6 450.45 L93.6 51.48" style="fill:none;stroke:#ffffff;stroke-linecap:round;stroke-width:1.3;"/>
     </g>
     <g id="line2d_2">
      <defs>
       <path d=" M0 0 L0 0" id="m56cc5124a0" style="stroke:#262626;stroke-width:1.3;"/>
      </defs>
      <g>
       <use style="fill:#262626;stroke:#262626;stroke-width:1.3;" x="93.6" xlink:href="#m56cc5124a0" y="450.45"/>
      </g>
     </g>
     <g id="line2d_3">
      <g>
       <use style="fill:#262626;stroke:#262626;stroke-width:1.3;" x="93.6" xlink:href="#m56cc5124a0" y="51.48"/>
      </g>
     </g>
     <g id="text_1">
      <!-- &#8722;6 -->
      <defs>
       <path d=" M12.7031 19.5938 Q12.7031 13.5938 16.3906 9.6875 Q20.0938 5.79688 26 5.79688 Q31.7969 5.79688 35.5 9.64062 Q39.2031 13.5 39.2031 19.5938 Q39.2031 25.7031 35.5 29.6406 Q31.7969 33.5938 26 33.5938 Q20.0938 33.5938 16.3906 29.6875 Q12.7031 25.7969 12.7031 19.5938 M45.5938 47.0938 L37.7969 47.0938 Q35 55.7969 26.5 55.7969 Q19.7969 55.7969 15.3906 49.0469 Q11 42.2969 11 32.2969 Q11 32 11.0469 30.9531 Q11.0938 29.9062 11.0938 29.5938 Q12.5938 34.2969 16.8906 37.1875 Q21.2031 40.0938 26.5938 40.0938 Q35.2969 40.0938 40.8906 34.1406 Q46.5 28.2031 46.5 19.7031 Q46.5 11 40.7969 5.04688 Q35.0938 -0.90625 25.9062 -0.90625 Q13.4062 -0.90625 7.59375 10.7969 Q4 18.4062 4 29.5938 Q4 44.4062 10.25 53.3438 Q16.5 62.2969 26.5 62.2969 Q41.7031 62.2969 45.5938 47.0938" id="CalibreRegular-36"/>
       <path d=" M7.29688 26.5938 L7.29688 32.7969 L46.7031 32.7969 L46.7031 26.5938 z " id="CalibreRegular-2212"/>
      </defs>
      <g style="fill:#262626;" transform="translate(86.9359765625 468.845)scale(0.14300000000000002 -0.14300000000000002)">
       <use xlink:href="#CalibreRegular-2212"/>
       <use x="53.99998474121094" xlink:href="#CalibreRegular-36"/>
      </g>
     </g>
    </g>
    <g id="xtick_2">
     <g id="line2d_4">
      <path clip-path="url(#pd831f6c710)" d=" M190.32 450.45 L190.32 51.48" style="fill:none;stroke:#ffffff;stroke-linecap:round;stroke-width:1.3;"/>
     </g>
     <g id="line2d_5">
      <g>
       <use style="fill:#262626;stroke:#262626;stroke-width:1.3;" x="190.32" xlink:href="#m56cc5124a0" y="450.45"/>
      </g>
     </g>
     <g id="line2d_6">
      <g>
       <use style="fill:#262626;stroke:#262626;stroke-width:1.3;" x="190.32" xlink:href="#m56cc5124a0" y="51.48"/>
      </g>
     </g>
     <g id="text_2">
      <!-- &#8722;4 -->
      <defs>
       <path d=" M33.7969 61.4062 L10.9062 20.5 L30.5 20.5 L30.5 35.2969 L37.7969 35.2969 L37.7969 20.5 L48.5938 20.5 L48.5938 13.9062 L37.7969 13.9062 L37.7969 0 L30.5 0 L30.5 13.9062 L2.20312 13.9062 L2.20312 19.5 L25.7969 61.4062 z " id="CalibreRegular-34"/>
      </defs>
      <g style="fill:#262626;" transform="translate(183.506273438 468.845)scale(0.14300000000000002 -0.14300000000000002)">
       <use xlink:href="#CalibreRegular-2212"/>
       <use x="53.99998474121094" xlink:href="#CalibreRegular-34"/>
      </g>
     </g>
    </g>
    <g id="xtick_3">
     <g id="line2d_7">
      <path clip-path="url(#pd831f6c710)" d=" M287.04 450.45 L287.04 51.48" style="fill:none;stroke:#ffffff;stroke-linecap:round;stroke-width:1.3;"/>
     </g>
     <g id="line2d_8">
      <g>
       <use style="fill:#262626;stroke:#262626;stroke-width:1.3;" x="287.04" xlink:href="#m56cc5124a0" y="450.45"/>
      </g>
     </g>
     <g id="line2d_9">
      <g>
       <use style="fill:#262626;stroke:#262626;stroke-width:1.3;" x="287.04" xlink:href="#m56cc5124a0" y="51.48"/>
      </g>
     </g>
     <g id="text_3">
      <!-- &#8722;2 -->
      <defs>
       <path d=" M34.0938 44.9062 Q34.0938 49.5938 31.0938 52.4375 Q28.0938 55.2969 23 55.2969 Q17.5938 55.2969 14.5469 51.9375 Q11.5 48.5938 11 43 L2.90625 43 Q3.79688 51.7031 9.1875 57 Q14.5938 62.2969 23 62.2969 Q31.7031 62.2969 36.7031 57.5938 Q41.7031 52.9062 41.7031 45 Q41.7031 43.5938 41.3438 42.0938 Q41 40.5938 40.6406 39.5 Q40.2969 38.4062 39.3438 36.75 Q38.4062 35.0938 37.9062 34.2969 Q37.4062 33.5 35.9062 31.7031 Q34.4062 29.9062 33.9062 29.2969 Q33.4062 28.7031 31.5469 26.6406 Q29.7031 24.5938 29.2969 24.0938 L13.7031 7 L43 7 L43 0 L2.90625 0 L2.90625 5.20312 L22.7031 27 Q27.2031 32 28.7969 33.7969 Q30.4062 35.5938 32.25 38.8906 Q34.0938 42.2031 34.0938 44.9062" id="CalibreRegular-32"/>
      </defs>
      <g style="fill:#262626;" transform="translate(280.626226563 468.845)scale(0.14300000000000002 -0.14300000000000002)">
       <use xlink:href="#CalibreRegular-2212"/>
       <use x="53.99998474121094" xlink:href="#CalibreRegular-32"/>
      </g>
     </g>
    </g>
    <g id="xtick_4">
     <g id="line2d_10">
      <path clip-path="url(#pd831f6c710)" d=" M383.76 450.45 L383.76 51.48" style="fill:none;stroke:#ffffff;stroke-linecap:round;stroke-width:1.3;"/>
     </g>
     <g id="line2d_11">
      <g>
       <use style="fill:#262626;stroke:#262626;stroke-width:1.3;" x="383.76" xlink:href="#m56cc5124a0" y="450.45"/>
      </g>
     </g>
     <g id="line2d_12">
      <g>
       <use style="fill:#262626;stroke:#262626;stroke-width:1.3;" x="383.76" xlink:href="#m56cc5124a0" y="51.48"/>
      </g>
     </g>
     <g id="text_4">
      <!-- 0 -->
      <defs>
       <path d=" M49.7969 16.5938 Q37.0938 -0.90625 26.8906 -0.90625 Q16.7031 -0.90625 10.3438 7.84375 Q4 16.5938 4 30.6875 Q4 44.7969 10.3438 53.5469 Q16.7031 62.2969 26.8906 62.2969 Q37.0938 62.2969 43.4375 53.5469 Q49.7969 44.7969 49.7969 30.6875 Q49.7969 16.5938 37.0938 -0.90625 M26.9062 55.2031 Q19.5938 55.2031 15.6406 48.5 Q11.7031 41.7969 11.7031 30.6875 Q11.7031 19.5938 15.6406 12.8906 Q19.5938 6.20312 26.9062 6.20312 Q34.0938 6.20312 38.0938 12.9531 Q42.0938 19.7031 42.0938 30.7031 Q42.0938 41.7031 38.0938 48.4531 Q34.0938 55.2031 26.9062 55.2031" id="CalibreRegular-30"/>
      </defs>
      <g style="fill:#262626;" transform="translate(380.485523438 468.845)scale(0.14300000000000002 -0.14300000000000002)">
       <use xlink:href="#CalibreRegular-30"/>
      </g>
     </g>
    </g>
    <g id="xtick_5">
     <g id="line2d_13">
      <path clip-path="url(#pd831f6c710)" d=" M480.48 450.45 L480.48 51.48" style="fill:none;stroke:#ffffff;stroke-linecap:round;stroke-width:1.3;"/>
     </g>
     <g id="line2d_14">
      <g>
       <use style="fill:#262626;stroke:#262626;stroke-width:1.3;" x="480.48" xlink:href="#m56cc5124a0" y="450.45"/>
      </g>
     </g>
     <g id="line2d_15">
      <g>
       <use style="fill:#262626;stroke:#262626;stroke-width:1.3;" x="480.48" xlink:href="#m56cc5124a0" y="51.48"/>
      </g>
     </g>
     <g id="text_5">
      <!-- 2 -->
      <g style="fill:#262626;" transform="translate(477.613296875 468.845)scale(0.14300000000000002 -0.14300000000000002)">
       <use xlink:href="#CalibreRegular-32"/>
      </g>
     </g>
    </g>
    <g id="xtick_6">
     <g id="line2d_16">
      <path clip-path="url(#pd831f6c710)" d=" M577.2 450.45 L577.2 51.48" style="fill:none;stroke:#ffffff;stroke-linecap:round;stroke-width:1.3;"/>
     </g>
     <g id="line2d_17">
      <g>
       <use style="fill:#262626;stroke:#262626;stroke-width:1.3;" x="577.2" xlink:href="#m56cc5124a0" y="450.45"/>
      </g>
     </g>
     <g id="line2d_18">
      <g>
       <use style="fill:#262626;stroke:#262626;stroke-width:1.3;" x="577.2" xlink:href="#m56cc5124a0" y="51.48"/>
      </g>
     </g>
     <g id="text_6">
      <!-- 4 -->
      <g style="fill:#262626;" transform="translate(573.883070313 468.845)scale(0.14300000000000002 -0.14300000000000002)">
       <use xlink:href="#CalibreRegular-34"/>
      </g>
     </g>
    </g>
    <g id="xtick_7">
     <g id="line2d_19">
      <path clip-path="url(#pd831f6c710)" d=" M673.92 450.45 L673.92 51.48" style="fill:none;stroke:#ffffff;stroke-linecap:round;stroke-width:1.3;"/>
     </g>
     <g id="line2d_20">
      <g>
       <use style="fill:#262626;stroke:#262626;stroke-width:1.3;" x="673.92" xlink:href="#m56cc5124a0" y="450.45"/>
      </g>
     </g>
     <g id="line2d_21">
      <g>
       <use style="fill:#262626;stroke:#262626;stroke-width:1.3;" x="673.92" xlink:href="#m56cc5124a0" y="51.48"/>
      </g>
     </g>
     <g id="text_7">
      <!-- 6 -->
      <g style="fill:#262626;" transform="translate(670.88125 468.845)scale(0.14300000000000002 -0.14300000000000002)">
       <use xlink:href="#CalibreRegular-36"/>
      </g>
     </g>
    </g>
   </g>
   <g id="matplotlib.axis_2">
    <g id="ytick_1">
     <g id="line2d_22">
      <path clip-path="url(#pd831f6c710)" d=" M93.6 450.45 L673.92 450.45" style="fill:none;stroke:#ffffff;stroke-linecap:round;stroke-width:1.3;"/>
     </g>
     <g id="line2d_23">
      <g>
       <use style="fill:#262626;stroke:#262626;stroke-width:1.3;" x="93.6" xlink:href="#m56cc5124a0" y="450.45"/>
      </g>
     </g>
     <g id="line2d_24">
      <g>
       <use style="fill:#262626;stroke:#262626;stroke-width:1.3;" x="673.92" xlink:href="#m56cc5124a0" y="450.45"/>
      </g>
     </g>
     <g id="text_8">
      <!-- &#8722;6 -->
      <g style="fill:#262626;" transform="translate(71.171953125 453.882)scale(0.14300000000000002 -0.14300000000000002)">
       <use xlink:href="#CalibreRegular-2212"/>
       <use x="53.99998474121094" xlink:href="#CalibreRegular-36"/>
      </g>
     </g>
    </g>
    <g id="ytick_2">
     <g id="line2d_25">
      <path clip-path="url(#pd831f6c710)" d=" M93.6 383.955 L673.92 383.955" style="fill:none;stroke:#ffffff;stroke-linecap:round;stroke-width:1.3;"/>
     </g>
     <g id="line2d_26">
      <g>
       <use style="fill:#262626;stroke:#262626;stroke-width:1.3;" x="93.6" xlink:href="#m56cc5124a0" y="383.955"/>
      </g>
     </g>
     <g id="line2d_27">
      <g>
       <use style="fill:#262626;stroke:#262626;stroke-width:1.3;" x="673.92" xlink:href="#m56cc5124a0" y="383.955"/>
      </g>
     </g>
     <g id="text_9">
      <!-- &#8722;4 -->
      <g style="fill:#262626;" transform="translate(70.872546875 387.387)scale(0.14300000000000002 -0.14300000000000002)">
       <use xlink:href="#CalibreRegular-2212"/>
       <use x="53.99998474121094" xlink:href="#CalibreRegular-34"/>
      </g>
     </g>
    </g>
    <g id="ytick_3">
     <g id="line2d_28">
      <path clip-path="url(#pd831f6c710)" d=" M93.6 317.46 L673.92 317.46" style="fill:none;stroke:#ffffff;stroke-linecap:round;stroke-width:1.3;"/>
     </g>
     <g id="line2d_29">
      <g>
       <use style="fill:#262626;stroke:#262626;stroke-width:1.3;" x="93.6" xlink:href="#m56cc5124a0" y="317.46"/>
      </g>
     </g>
     <g id="line2d_30">
      <g>
       <use style="fill:#262626;stroke:#262626;stroke-width:1.3;" x="673.92" xlink:href="#m56cc5124a0" y="317.46"/>
      </g>
     </g>
     <g id="text_10">
      <!-- &#8722;2 -->
      <g style="fill:#262626;" transform="translate(71.672453125 320.892)scale(0.14300000000000002 -0.14300000000000002)">
       <use xlink:href="#CalibreRegular-2212"/>
       <use x="53.99998474121094" xlink:href="#CalibreRegular-32"/>
      </g>
     </g>
    </g>
    <g id="ytick_4">
     <g id="line2d_31">
      <path clip-path="url(#pd831f6c710)" d=" M93.6 250.965 L673.92 250.965" style="fill:none;stroke:#ffffff;stroke-linecap:round;stroke-width:1.3;"/>
     </g>
     <g id="line2d_32">
      <g>
       <use style="fill:#262626;stroke:#262626;stroke-width:1.3;" x="93.6" xlink:href="#m56cc5124a0" y="250.965"/>
      </g>
     </g>
     <g id="line2d_33">
      <g>
       <use style="fill:#262626;stroke:#262626;stroke-width:1.3;" x="673.92" xlink:href="#m56cc5124a0" y="250.965"/>
      </g>
     </g>
     <g id="text_11">
      <!-- 0 -->
      <g style="fill:#262626;" transform="translate(77.951046875 254.397)scale(0.14300000000000002 -0.14300000000000002)">
       <use xlink:href="#CalibreRegular-30"/>
      </g>
     </g>
    </g>
    <g id="ytick_5">
     <g id="line2d_34">
      <path clip-path="url(#pd831f6c710)" d=" M93.6 184.47 L673.92 184.47" style="fill:none;stroke:#ffffff;stroke-linecap:round;stroke-width:1.3;"/>
     </g>
     <g id="line2d_35">
      <g>
       <use style="fill:#262626;stroke:#262626;stroke-width:1.3;" x="93.6" xlink:href="#m56cc5124a0" y="184.47"/>
      </g>
     </g>
     <g id="line2d_36">
      <g>
       <use style="fill:#262626;stroke:#262626;stroke-width:1.3;" x="673.92" xlink:href="#m56cc5124a0" y="184.47"/>
      </g>
     </g>
     <g id="text_12">
      <!-- 2 -->
      <g style="fill:#262626;" transform="translate(78.76659375 187.902)scale(0.14300000000000002 -0.14300000000000002)">
       <use xlink:href="#CalibreRegular-32"/>
      </g>
     </g>
    </g>
    <g id="ytick_6">
     <g id="line2d_37">
      <path clip-path="url(#pd831f6c710)" d=" M93.6 117.975 L673.92 117.975" style="fill:none;stroke:#ffffff;stroke-linecap:round;stroke-width:1.3;"/>
     </g>
     <g id="line2d_38">
      <g>
       <use style="fill:#262626;stroke:#262626;stroke-width:1.3;" x="93.6" xlink:href="#m56cc5124a0" y="117.975"/>
      </g>
     </g>
     <g id="line2d_39">
      <g>
       <use style="fill:#262626;stroke:#262626;stroke-width:1.3;" x="673.92" xlink:href="#m56cc5124a0" y="117.975"/>
      </g>
     </g>
     <g id="text_13">
      <!-- 4 -->
      <g style="fill:#262626;" transform="translate(77.866140625 121.407)scale(0.14300000000000002 -0.14300000000000002)">
       <use xlink:href="#CalibreRegular-34"/>
      </g>
     </g>
    </g>
    <g id="ytick_7">
     <g id="line2d_40">
      <path clip-path="url(#pd831f6c710)" d=" M93.6 51.48 L673.92 51.48" style="fill:none;stroke:#ffffff;stroke-linecap:round;stroke-width:1.3;"/>
     </g>
     <g id="line2d_41">
      <g>
       <use style="fill:#262626;stroke:#262626;stroke-width:1.3;" x="93.6" xlink:href="#m56cc5124a0" y="51.48"/>
      </g>
     </g>
     <g id="line2d_42">
      <g>
       <use style="fill:#262626;stroke:#262626;stroke-width:1.3;" x="673.92" xlink:href="#m56cc5124a0" y="51.48"/>
      </g>
     </g>
     <g id="text_14">
      <!-- 6 -->
      <g style="fill:#262626;" transform="translate(78.4225 54.912)scale(0.14300000000000002 -0.14300000000000002)">
       <use xlink:href="#CalibreRegular-36"/>
      </g>
     </g>
    </g>
   </g>
   <g id="line2d_43">
    <path clip-path="url(#pd831f6c710)" d=" M93.6 250.965 L673.92 250.965" style="fill:none;stroke:#dcdce6;stroke-linecap:round;stroke-width:2;"/>
   </g>
   <g id="line2d_44">
    <path clip-path="url(#pd831f6c710)" d=" M383.76 450.45 L383.76 51.48" style="fill:none;stroke:#dcdce6;stroke-linecap:round;stroke-width:2;"/>
   </g>
   <g id="Quiver_1">
    <path clip-path="url(#pd831f6c710)" d=" M383.102 250.009 L572.717 119.649 L570.744 116.779 L577.2 117.975 L576.004 124.431 L574.032 121.562 L384.418 251.921 L383.102 250.009" style="fill:#386df9;"/>
    <path clip-path="url(#pd831f6c710)" d=" M383.102 250.009 L475.997 186.144 L474.024 183.274 L480.48 184.47 L479.284 190.926 L477.312 188.057 L384.418 251.921 L383.102 250.009" style="fill:#ffdc52;"/>
    <path clip-path="url(#pd831f6c710)" d=" M384.418 251.921 L194.803 382.281 L196.776 385.151 L190.32 383.955 L191.516 377.499 L193.488 380.368 L383.102 250.009 L384.418 251.921" style="fill:#ff1614;"/>
    <path clip-path="url(#pd831f6c710)" d=" M384.418 251.921 L291.523 315.786 L293.496 318.656 L287.04 317.46 L288.236 311.004 L290.208 313.873 L383.102 250.009 L384.418 251.921" style="fill:#34495e;"/>
   </g>
   <g id="patch_3">
    <path d=" M93.6 51.48 L673.92 51.48" style="fill:none;"/>
   </g>
   <g id="patch_4">
    <path d=" M93.6 450.45 L673.92 450.45" style="fill:none;"/>
   </g>
   <g id="patch_5">
    <path d=" M93.6 450.45 L93.6 51.48" style="fill:none;"/>
   </g>
   <g id="patch_6">
    <path d=" M673.92 450.45 L673.92 51.48" style="fill:none;"/>
   </g>
  </g>
 </g>
 </svg>
